<svg width="169" height="26" viewBox="0 0 169 26" fill="none" xmlns="http://www.w3.org/2000/svg">
<path d="M33.8682 5.35938H36.5967L40.6143 16.8428L44.6318 5.35938H47.3604L41.71 21H39.5186L33.8682 5.35938ZM32.3965 5.35938H35.1143L35.6084 16.5527V21H32.3965V5.35938ZM46.1143 5.35938H48.8428V21H45.6201V16.5527L46.1143 5.35938ZM54.9229 19.6895L58.0059 9.37695H61.3252L56.6523 22.751C56.5521 23.0446 56.416 23.3597 56.2441 23.6963C56.0794 24.0329 55.8538 24.3516 55.5674 24.6523C55.2881 24.9603 54.9336 25.2109 54.5039 25.4043C54.0814 25.5977 53.5622 25.6943 52.9463 25.6943C52.6527 25.6943 52.4128 25.6764 52.2266 25.6406C52.0404 25.6048 51.8184 25.5547 51.5605 25.4902V23.2236C51.6393 23.2236 51.7217 23.2236 51.8076 23.2236C51.8936 23.2308 51.9759 23.2344 52.0547 23.2344C52.4629 23.2344 52.7959 23.1878 53.0537 23.0947C53.3115 23.0016 53.5192 22.8584 53.6768 22.665C53.8343 22.4788 53.9596 22.2354 54.0527 21.9346L54.9229 19.6895ZM53.6338 9.37695L56.1582 17.7988L56.5986 21.0752L54.4932 21.3008L50.3145 9.37695H53.6338Z" fill="#1C1C1C"/>
<path d="M68.6621 14.6299H64.2041V13.502H68.6621C69.5931 13.502 70.3486 13.3516 70.9287 13.0508C71.516 12.7428 71.9421 12.3275 72.207 11.8047C72.4792 11.2819 72.6152 10.6947 72.6152 10.043C72.6152 9.4056 72.4792 8.81836 72.207 8.28125C71.9421 7.74414 71.516 7.31445 70.9287 6.99219C70.3486 6.66276 69.5931 6.49805 68.6621 6.49805H64.666V21H63.3447V5.35938H68.6621C69.8079 5.35938 70.7712 5.55632 71.5518 5.9502C72.3395 6.34408 72.9339 6.89193 73.335 7.59375C73.736 8.29557 73.9365 9.10482 73.9365 10.0215C73.9365 10.9811 73.736 11.8083 73.335 12.5029C72.9339 13.1904 72.3431 13.7168 71.5625 14.082C70.7819 14.4473 69.8151 14.6299 68.6621 14.6299ZM80.9404 21.2148C80.1813 21.2148 79.4831 21.0752 78.8457 20.7959C78.2155 20.5166 77.6641 20.1227 77.1914 19.6143C76.7259 19.1058 76.3643 18.5042 76.1064 17.8096C75.8558 17.1077 75.7305 16.3415 75.7305 15.5107V15.0488C75.7305 14.1536 75.863 13.3444 76.1279 12.6211C76.3929 11.8978 76.7581 11.2783 77.2236 10.7627C77.6891 10.2471 78.2191 9.85319 78.8135 9.58105C79.415 9.30176 80.0452 9.16211 80.7041 9.16211C81.4417 9.16211 82.097 9.2946 82.6699 9.55957C83.2428 9.81738 83.7227 10.1862 84.1094 10.666C84.5033 11.1387 84.8005 11.7008 85.001 12.3525C85.2015 12.9971 85.3018 13.7096 85.3018 14.4902V15.2744H76.5039V14.1787H84.0234V14.0283C84.0091 13.3766 83.8766 12.7679 83.626 12.2021C83.3825 11.6292 83.0173 11.1637 82.5303 10.8057C82.0433 10.4476 81.4346 10.2686 80.7041 10.2686C80.1598 10.2686 79.6585 10.3831 79.2002 10.6123C78.749 10.8415 78.3587 11.1709 78.0293 11.6006C77.707 12.0231 77.4564 12.528 77.2773 13.1152C77.1055 13.6953 77.0195 14.3398 77.0195 15.0488V15.5107C77.0195 16.1553 77.1126 16.7568 77.2988 17.3154C77.4922 17.8669 77.7643 18.3538 78.1152 18.7764C78.4733 19.1989 78.8958 19.5283 79.3828 19.7646C79.8698 20.001 80.4069 20.1191 80.9941 20.1191C81.6816 20.1191 82.2904 19.9938 82.8203 19.7432C83.3503 19.4854 83.8265 19.0807 84.249 18.5293L85.0547 19.1523C84.804 19.5247 84.4889 19.8685 84.1094 20.1836C83.737 20.4987 83.2894 20.7493 82.7666 20.9355C82.2438 21.1217 81.6351 21.2148 80.9404 21.2148ZM89.1152 11.2998V21H87.8369V9.37695H89.083L89.1152 11.2998ZM93.2295 9.29102L93.1973 10.4727C93.054 10.4512 92.9144 10.4333 92.7783 10.4189C92.6423 10.4046 92.4954 10.3975 92.3379 10.3975C91.7793 10.3975 91.2887 10.5013 90.8662 10.709C90.4508 10.9095 90.0999 11.1924 89.8135 11.5576C89.527 11.9157 89.3086 12.3382 89.1582 12.8252C89.0078 13.305 88.9219 13.8206 88.9004 14.3721L88.4277 14.5547C88.4277 13.7956 88.5065 13.0902 88.6641 12.4385C88.8216 11.7868 89.0615 11.2174 89.3838 10.7305C89.7132 10.2363 90.125 9.85319 90.6191 9.58105C91.1204 9.30176 91.7077 9.16211 92.3809 9.16211C92.5456 9.16211 92.7067 9.17643 92.8643 9.20508C93.029 9.22656 93.1507 9.25521 93.2295 9.29102ZM102.21 18.0352C102.21 17.7201 102.131 17.4085 101.974 17.1006C101.816 16.7926 101.512 16.5098 101.061 16.252C100.617 15.9941 99.9613 15.7757 99.0947 15.5967C98.4502 15.4535 97.8737 15.2923 97.3652 15.1133C96.8639 14.9342 96.4414 14.7194 96.0977 14.4688C95.7539 14.2181 95.4925 13.9173 95.3135 13.5664C95.1344 13.2155 95.0449 12.8001 95.0449 12.3203C95.0449 11.8906 95.138 11.486 95.3242 11.1064C95.5176 10.7197 95.7897 10.3831 96.1406 10.0967C96.4987 9.80306 96.9284 9.57389 97.4297 9.40918C97.9382 9.24447 98.5075 9.16211 99.1377 9.16211C100.033 9.16211 100.799 9.31608 101.437 9.62402C102.081 9.9248 102.572 10.3366 102.908 10.8594C103.252 11.3822 103.424 11.973 103.424 12.6318H102.146C102.146 12.2308 102.027 11.8512 101.791 11.4932C101.562 11.1351 101.222 10.8415 100.771 10.6123C100.326 10.3831 99.7822 10.2686 99.1377 10.2686C98.4717 10.2686 97.931 10.3688 97.5156 10.5693C97.1003 10.7699 96.7959 11.0241 96.6025 11.332C96.4163 11.64 96.3232 11.9587 96.3232 12.2881C96.3232 12.5459 96.3626 12.7822 96.4414 12.9971C96.5273 13.2048 96.6777 13.3981 96.8926 13.5771C97.1146 13.7562 97.4297 13.9245 97.8379 14.082C98.2461 14.2396 98.776 14.3936 99.4277 14.5439C100.366 14.7516 101.132 15.0059 101.727 15.3066C102.328 15.6003 102.772 15.9655 103.059 16.4023C103.345 16.832 103.488 17.3548 103.488 17.9707C103.488 18.4505 103.388 18.891 103.188 19.292C102.987 19.6859 102.697 20.026 102.317 20.3125C101.945 20.599 101.494 20.821 100.964 20.9785C100.441 21.1361 99.8538 21.2148 99.2021 21.2148C98.221 21.2148 97.3903 21.0537 96.71 20.7314C96.0368 20.402 95.5247 19.9723 95.1738 19.4424C94.8301 18.9053 94.6582 18.3359 94.6582 17.7344H95.9365C95.9795 18.3359 96.1693 18.8122 96.5059 19.1631C96.8424 19.5068 97.2542 19.7503 97.7412 19.8936C98.2354 20.0368 98.7223 20.1084 99.2021 20.1084C99.861 20.1084 100.412 20.0117 100.856 19.8184C101.3 19.625 101.637 19.3708 101.866 19.0557C102.095 18.7406 102.21 18.4004 102.21 18.0352ZM105.69 15.3711V15.0166C105.69 14.1715 105.812 13.391 106.056 12.6748C106.299 11.9587 106.646 11.3392 107.098 10.8164C107.556 10.2936 108.104 9.889 108.741 9.60254C109.379 9.30892 110.088 9.16211 110.868 9.16211C111.656 9.16211 112.368 9.30892 113.006 9.60254C113.643 9.889 114.191 10.2936 114.649 10.8164C115.108 11.3392 115.459 11.9587 115.702 12.6748C115.946 13.391 116.067 14.1715 116.067 15.0166V15.3711C116.067 16.2161 115.946 16.9967 115.702 17.7129C115.459 18.4219 115.108 19.0378 114.649 19.5605C114.198 20.0833 113.654 20.4915 113.017 20.7852C112.379 21.0716 111.67 21.2148 110.89 21.2148C110.102 21.2148 109.389 21.0716 108.752 20.7852C108.115 20.4915 107.567 20.0833 107.108 19.5605C106.65 19.0378 106.299 18.4219 106.056 17.7129C105.812 16.9967 105.69 16.2161 105.69 15.3711ZM106.969 15.0166V15.3711C106.969 16.0085 107.055 16.6136 107.227 17.1865C107.398 17.7523 107.649 18.2572 107.979 18.7012C108.308 19.138 108.716 19.4818 109.203 19.7324C109.69 19.9831 110.252 20.1084 110.89 20.1084C111.52 20.1084 112.075 19.9831 112.555 19.7324C113.042 19.4818 113.45 19.138 113.779 18.7012C114.109 18.2572 114.356 17.7523 114.521 17.1865C114.692 16.6136 114.778 16.0085 114.778 15.3711V15.0166C114.778 14.3864 114.692 13.7884 114.521 13.2227C114.356 12.6569 114.105 12.152 113.769 11.708C113.439 11.264 113.031 10.9131 112.544 10.6553C112.057 10.3975 111.498 10.2686 110.868 10.2686C110.238 10.2686 109.679 10.3975 109.192 10.6553C108.713 10.9131 108.304 11.264 107.968 11.708C107.638 12.152 107.388 12.6569 107.216 13.2227C107.051 13.7884 106.969 14.3864 106.969 15.0166ZM120.01 11.8584V21H118.731V9.37695H119.956L120.01 11.8584ZM119.72 14.4688L119.15 14.1465C119.193 13.459 119.333 12.8145 119.569 12.2129C119.806 11.6113 120.124 11.0814 120.525 10.623C120.934 10.1647 121.41 9.80664 121.954 9.54883C122.506 9.29102 123.114 9.16211 123.78 9.16211C124.36 9.16211 124.88 9.24089 125.338 9.39844C125.796 9.55599 126.187 9.80664 126.509 10.1504C126.831 10.4941 127.075 10.9346 127.239 11.4717C127.411 12.0088 127.497 12.6641 127.497 13.4375V21H126.208V13.4268C126.208 12.6247 126.097 11.998 125.875 11.5469C125.653 11.0885 125.338 10.7627 124.93 10.5693C124.521 10.376 124.038 10.2793 123.479 10.2793C122.864 10.2793 122.323 10.4154 121.857 10.6875C121.399 10.9525 121.012 11.2998 120.697 11.7295C120.389 12.152 120.153 12.6068 119.988 13.0938C119.824 13.5736 119.734 14.0319 119.72 14.4688ZM137.896 18.916V12.9219C137.896 12.3704 137.781 11.8942 137.552 11.4932C137.323 11.0921 136.986 10.7842 136.542 10.5693C136.098 10.3545 135.55 10.2471 134.898 10.2471C134.297 10.2471 133.76 10.3545 133.287 10.5693C132.822 10.777 132.453 11.0599 132.181 11.418C131.916 11.7689 131.783 12.1592 131.783 12.5889L130.494 12.5781C130.494 12.1413 130.602 11.7188 130.816 11.3105C131.031 10.9023 131.336 10.5371 131.729 10.2148C132.123 9.89258 132.592 9.63835 133.137 9.45215C133.688 9.25879 134.293 9.16211 134.952 9.16211C135.783 9.16211 136.513 9.30176 137.144 9.58105C137.781 9.86035 138.279 10.2793 138.637 10.8379C138.995 11.3965 139.174 12.0983 139.174 12.9434V18.5615C139.174 18.9626 139.202 19.3779 139.26 19.8076C139.324 20.2373 139.414 20.5918 139.528 20.8711V21H138.164C138.078 20.7422 138.01 20.4199 137.96 20.0332C137.917 19.6393 137.896 19.2669 137.896 18.916ZM138.196 14.2324L138.218 15.2207H135.693C135.035 15.2207 134.444 15.2816 133.921 15.4033C133.405 15.5179 132.968 15.6898 132.61 15.9189C132.252 16.141 131.977 16.4095 131.783 16.7246C131.597 17.0397 131.504 17.3978 131.504 17.7988C131.504 18.2142 131.608 18.5938 131.815 18.9375C132.03 19.2812 132.331 19.557 132.718 19.7646C133.112 19.9652 133.577 20.0654 134.114 20.0654C134.83 20.0654 135.461 19.9329 136.005 19.668C136.556 19.403 137.011 19.0557 137.369 18.626C137.727 18.1963 137.967 17.7272 138.089 17.2188L138.647 17.96C138.554 18.318 138.382 18.6868 138.132 19.0664C137.888 19.4388 137.57 19.7897 137.176 20.1191C136.782 20.4414 136.316 20.7064 135.779 20.9141C135.249 21.1146 134.648 21.2148 133.975 21.2148C133.215 21.2148 132.553 21.0716 131.987 20.7852C131.429 20.4987 130.992 20.1084 130.677 19.6143C130.369 19.113 130.215 18.5472 130.215 17.917C130.215 17.3441 130.337 16.832 130.58 16.3809C130.824 15.9225 131.174 15.5358 131.633 15.2207C132.098 14.8984 132.657 14.6549 133.309 14.4902C133.967 14.3184 134.705 14.2324 135.521 14.2324H138.196ZM144.051 4.5V21H142.772V4.5H144.051ZM148.992 9.37695V21H147.714V9.37695H148.992ZM147.488 6.01465C147.488 5.77116 147.563 5.56706 147.714 5.40234C147.871 5.23047 148.086 5.14453 148.358 5.14453C148.631 5.14453 148.845 5.23047 149.003 5.40234C149.168 5.56706 149.25 5.77116 149.25 6.01465C149.25 6.25098 149.168 6.45508 149.003 6.62695C148.845 6.79167 148.631 6.87402 148.358 6.87402C148.086 6.87402 147.871 6.79167 147.714 6.62695C147.563 6.45508 147.488 6.25098 147.488 6.01465ZM156.898 9.37695V10.4297H151.076V9.37695H156.898ZM153.214 6.39062H154.492V18.1748C154.492 18.7119 154.564 19.1165 154.707 19.3887C154.85 19.6608 155.036 19.8434 155.266 19.9365C155.495 20.0296 155.742 20.0762 156.007 20.0762C156.2 20.0762 156.386 20.0654 156.565 20.0439C156.744 20.0153 156.906 19.9867 157.049 19.958L157.103 21.043C156.945 21.0931 156.741 21.1325 156.49 21.1611C156.24 21.1969 155.989 21.2148 155.738 21.2148C155.244 21.2148 154.807 21.1253 154.428 20.9463C154.048 20.7601 153.751 20.445 153.536 20.001C153.321 19.5498 153.214 18.9375 153.214 18.1641V6.39062ZM163.043 19.8398L166.663 9.37695H168.049L163.129 22.8691C163.029 23.1341 162.9 23.4277 162.742 23.75C162.592 24.0723 162.391 24.3802 162.141 24.6738C161.897 24.9746 161.589 25.2181 161.217 25.4043C160.852 25.5977 160.404 25.6943 159.874 25.6943C159.738 25.6943 159.562 25.6764 159.348 25.6406C159.14 25.612 158.99 25.5833 158.896 25.5547L158.886 24.4697C158.965 24.4912 159.079 24.5091 159.229 24.5234C159.38 24.5378 159.484 24.5449 159.541 24.5449C160.007 24.5449 160.397 24.4661 160.712 24.3086C161.034 24.151 161.303 23.9147 161.518 23.5996C161.732 23.2917 161.922 22.9049 162.087 22.4395L163.043 19.8398ZM159.659 9.37695L163.365 19.3564L163.709 20.6992L162.774 21.2256L158.263 9.37695H159.659Z" fill="#1E90FF"/>
<path d="M11.8379 16.25C9.72266 16.25 7.97852 14.543 8.01562 12.3906C8.01562 10.2754 9.72266 8.53125 11.8379 8.53125C13.9531 8.53125 15.6973 10.2754 15.6973 12.3906C15.6973 14.543 13.9902 16.25 11.8379 16.25ZM13.6934 17.4375C16.625 17.4375 19 19.6641 19 22.4102C19 22.9668 18.5176 23.375 17.9238 23.375H5.78906C5.19531 23.375 4.75 22.9668 4.75 22.4102C4.75 19.6641 7.08789 17.4375 10.0195 17.4375H13.6934ZM19 10.3125C17.3301 10.3125 16.0312 9.01367 16.0312 7.34375C16.0312 5.71094 17.3301 4.375 19 4.375C20.6328 4.375 21.9688 5.71094 21.9688 7.34375C21.9688 9.01367 20.6328 10.3125 19 10.3125ZM6.79102 12.3906C6.79102 13.6523 7.27344 14.8027 8.05273 15.6562H0.630859C0.259766 15.6562 0 15.3594 0 14.9883C0 13.0586 1.44727 11.5 3.26562 11.5H5.5293C6.01172 11.5 6.45703 11.6113 6.86523 11.834C6.82812 12.0195 6.79102 12.2051 6.79102 12.3906ZM4.75 10.3125C3.08008 10.3125 1.78125 9.01367 1.78125 7.34375C1.78125 5.71094 3.08008 4.375 4.75 4.375C6.38281 4.375 7.71875 5.71094 7.71875 7.34375C7.71875 9.01367 6.38281 10.3125 4.75 10.3125ZM20.4473 11.5C22.2656 11.5 23.75 13.0586 23.75 14.9883C23.75 15.3594 23.4531 15.6562 23.082 15.6562H15.6602C16.4395 14.8027 16.8848 13.6523 16.8848 12.3906C16.8848 12.2051 16.8477 12.0195 16.8477 11.834C17.2559 11.6484 17.7012 11.5 18.1836 11.5H20.4473Z" fill="#1E90FF"/>
</svg>
